<svg xmlns="http://www.w3.org/2000/svg" width="1500" height="801"><g fill="none" fill-rule="evenodd" opacity=".08" style="mix-blend-mode:luminosity" transform="translate(-51 -6)"><path fill="#000" fill-rule="nonzero" d="m1021.5 203.41-16.12-16.12a3.23 3.23 0 0 0-2.57-.92h-.16a3.21 3.21 0 0 0-1.85.91l-27.07 27.07a3.21 3.21 0 0 0-.88 1.88 1.49 1.49 0 0 0 0 .25 3.22 3.22 0 0 0 .93 2.49l16.07 16.1a3.25 3.25 0 0 0 4.58 0L1021.5 208a3.24 3.24 0 0 0 0-4.59Zm-25.07 6.52-18.15 4.11 22.21-22.21-4.06 18.1Z"/><path fill="#FFF" fill-rule="nonzero" d="m1019.38 205.88-27.07 27.07a.24.24 0 0 1-.34 0l-15.43-15.43 21.48-4.86a1.5 1.5 0 0 0 1.13-1.13l4.8-21.41 15.43 15.43a.24.24 0 0 1 0 .34v-.01ZM957.85 239.54a1.5 1.5 0 0 1-1.06-2.56l13.63-13.62a1.5 1.5 0 0 1 2.12 2.12l-13.63 13.63a1.5 1.5 0 0 1-1.06.43ZM968.08 240.78a1.5 1.5 0 0 1-1.06-2.56l9.14-9.14a1.5 1.5 0 0 1 2.12 2.12l-9.14 9.14a1.5 1.5 0 0 1-1.06.44ZM978.37 241.93a1.5 1.5 0 0 1-1.06-2.56l4.57-4.57a1.5 1.5 0 0 1 2.12 2.12l-4.57 4.57a1.49 1.49 0 0 1-1.06.44Z"/><path fill="#000" fill-rule="nonzero" d="M943.85 641.35a1.5 1.5 0 0 1-1.46-1.18l-6.3-28.69a1.5 1.5 0 0 1 1.14-1.79l11-2.42a1.512 1.512 0 0 1 .62 2.96l-9.56 2.1 5.66 25.76 47.78-10.5-5.66-25.76-9.55 2.13a1.5 1.5 0 0 1-.65-2.93l11-2.45a1.5 1.5 0 0 1 1.79 1.14l6.3 28.7a1.5 1.5 0 0 1-1.14 1.79l-50.71 11.14a1.47 1.47 0 0 1-.26 0ZM968.63 596.6a1.5 1.5 0 0 1-1.46-1.18l-1.45-6.62a1.5 1.5 0 0 1 2.93-.64l1.13 5.15 5.17-1.13a1.5 1.5 0 1 1 .64 2.93l-6.63 1.46a1.5 1.5 0 0 1-.33.03Z"/><path fill="#000" fill-rule="nonzero" d="M989.31 598.98a1.5 1.5 0 0 0-2.12-.06l-7.65 7.21-2.86-13a2.65 2.65 0 0 0-1.17-1.75l-6.39-4.05a2.72 2.72 0 0 0-2.08-.32l-21 4.61a2.81 2.81 0 0 0-1.72 1.13 2.66 2.66 0 0 0-.4 2.11l4 18.27-10-3.36a1.505 1.505 0 0 0-1 2.84l28.77 9.62a1.5 1.5 0 0 0 1.51-.33l22.06-20.8a1.5 1.5 0 0 0 .05-2.12Z"/><path fill="#FFF" fill-rule="nonzero" d="m965.79 619.11-14.52-4.9-4.34-19.74 20.72-4.55 6.11 3.88 3.24 14.74z"/><path fill="#000" fill-rule="nonzero" d="M959.07 610.03a6.19 6.19 0 0 1-3.18-.88 5.7 5.7 0 0 1-2.68-3.67l-1.47-6.67a1.5 1.5 0 0 1 2.93-.64l1.47 6.67a2.73 2.73 0 0 0 1.29 1.74 3.11 3.11 0 0 0 2.26.38 3 3 0 0 0 2.34-3.42l-3.6-16.39a1.68 1.68 0 0 0-.8-1.07 2 2 0 0 0-1.42-.24 1.87 1.87 0 0 0-1.47 2.12l.68 3.1a1.5 1.5 0 0 1-2.93.64l-.68-3.1a4.89 4.89 0 0 1 9.54-2.1l3.6 16.39a6 6 0 0 1-4.62 7 5.92 5.92 0 0 1-1.26.14Z"/><path stroke="#FFF" stroke-linecap="round" stroke-width="3" d="M424.02 152.82v12.67M430.35 159.16h-12.66M1189.55 152.82v12.67M1195.88 159.16h-12.66M1297.68 299.25v12.66M1304.02 305.58h-12.67M315.89 299.25v12.66M322.22 305.58h-12.67M1031.2 237.09v12.67M1037.53 243.43h-12.67M582.37 237.09v12.67M588.71 243.43h-12.67M126.28 343.37h12.67M132.62 337.04v12.66M125.62 499.59l12.66.23M132.07 493.37l-.24 12.66M932.24 129.11v20.16M942.32 139.19h-20.16M681.33 129.11v20.16M691.41 139.19h-20.16M806.78 7.5v20.17M816.87 17.58H796.7M62.58 414.25v20.17M72.67 424.33H52.5M1538.95 414.25v20.17M1549.04 424.33h-20.17"/><g transform="translate(1309 622)"><path fill="#FFF" fill-rule="nonzero" d="M20.26 19.57a27.471 27.471 0 1 1 38.85 38.85"/><circle cx="39.691" cy="39" r="27.47" stroke="#231F20" stroke-width="3" transform="rotate(-45 39.69 39)"/><path fill="#231F20" fill-rule="nonzero" stroke="#231F20" d="M45.85 40.51a.9.9 0 0 1-.85-.6l-1.36-3.94a4.76 4.76 0 0 0-2.71-3c-1.75-.55-4.13.32-6.91 2.52a.9.9 0 0 1-1.11-1.4c3.32-2.63 6.2-3.58 8.58-2.82a6.49 6.49 0 0 1 3.86 4.16l1.34 3.89a.9.9 0 0 1-.85 1.19h.01Z"/><path fill="#231F20" fill-rule="nonzero" stroke="#231F20" d="M39.85 55.03a16 16 0 1 1 14.63-23 9.79 9.79 0 0 1 .41 7.85 6.3 6.3 0 0 1-3.83 3.56 4.34 4.34 0 0 1-3.6-.17 4.41 4.41 0 0 1-1.2-1 9.66 9.66 0 0 1-5.21 4.59 4.93 4.93 0 0 1-6.55-2.68 4.27 4.27 0 0 1 0-4.19c2.09-3.51 9.45-4 10.29-4.09a.9.9 0 0 1 .11 1.79c-2 .12-7.49.93-8.85 3.22a2.55 2.55 0 0 0 .07 2.51 3.17 3.17 0 0 0 4.34 1.75c2.54-.89 4.88-3.71 4.48-5.39a.9.9 0 0 1 1.74-.43 4.11 4.11 0 0 0 1.64 2.32 2.6 2.6 0 0 0 2.16 0 4.55 4.55 0 0 0 2.76-2.57 8.11 8.11 0 0 0-.39-6.38A14.29 14.29 0 1 0 51.66 47a.9.9 0 1 1 1.47 1 16.25 16.25 0 0 1-13.28 7.03Z"/></g><path stroke="#FFF" stroke-linecap="round" stroke-width="3" d="M1189.55 694.56v-12.67M1183.22 688.22h12.66M424.02 694.56v-12.67M417.69 688.22h12.66M1311.36 508.13v-12.66M1305.02 501.8h12.67M302.21 508.13v-12.66M295.88 501.8h12.66M582.37 594.55v-12.66M576.04 588.22h12.67M1031.2 594.55v-12.66M1024.86 588.22h12.67M1475.2 342.51h12.66M1481.53 336.18v12.66M1474.53 498.73l12.66.23M1480.98 492.51l-.24 12.66M666.01 694.65v-20.17M655.93 684.56h20.16M916.92 694.65v-20.17M906.84 684.56h20.17M806.78 804.88v-20.16M796.7 794.8h20.17M942.44 482.16v12.66M948.77 488.49h-12.66"/><circle cx="1033.27" cy="402.98" r="3.32" fill="#FFF" fill-rule="nonzero"/><path fill="#000" fill-rule="nonzero" d="M806.78 268.66a8.05 8.05 0 1 1 8.05-8.05 8.06 8.06 0 0 1-8.05 8.05Zm0-13.11a5.05 5.05 0 1 0 5.05 5.05 5.06 5.06 0 0 0-5.05-5.04v-.01ZM498.64 91.23a8.05 8.05 0 1 1 8.05-8.05 8.06 8.06 0 0 1-8.05 8.05Zm0-13.11a5.05 5.05 0 1 0 5.05 5.05 5.06 5.06 0 0 0-5.05-5.05ZM1114.92 91.23a8.05 8.05 0 1 1 8.05-8.05 8.06 8.06 0 0 1-8.05 8.05Zm0-13.11a5.05 5.05 0 1 0 5.05 5.05 5.06 5.06 0 0 0-5.05-5.05ZM155.64 421.23a8.05 8.05 0 1 1 8.05 8.05 8.06 8.06 0 0 1-8.05-8.05Zm13.11 0a5.05 5.05 0 1 0-5.05 5.05 5.06 5.06 0 0 0 5.05-5.05ZM195 262.01a8.05 8.05 0 1 1 8.05 8.05 8.06 8.06 0 0 1-8.05-8.05Zm13.11 0a5.05 5.05 0 1 0-5.05 5.05 5.06 5.06 0 0 0 5.05-5.05ZM195 580.37a8.05 8.05 0 1 1 8.05 8.05 8.06 8.06 0 0 1-8.05-8.05Zm13.11 0a5.05 5.05 0 1 0-5.05 5.05 5.06 5.06 0 0 0 5.05-5.05ZM521.55 312.57a8.05 8.05 0 1 1 8.05-8.05 8.06 8.06 0 0 1-8.05 8.05Zm0-13.11a5.05 5.05 0 1 0 5.05 5.05 5.06 5.06 0 0 0-5.05-5.05ZM1092.02 312.57a8.05 8.05 0 1 1 8.05-8.05 8.06 8.06 0 0 1-8.05 8.05Zm0-13.11a5.05 5.05 0 1 0 5.05 5.05 5.06 5.06 0 0 0-5.05-5.05Z"/><circle cx="1053.48" cy="135.87" r="3.32" fill="#000" fill-rule="nonzero"/><circle cx="616.69" cy="138.55" r="3.32" fill="#000" fill-rule="nonzero"/><circle cx="1189.55" cy="290.78" r="3.32" fill="#000" fill-rule="nonzero"/><circle cx="424.02" cy="290.78" r="3.32" fill="#000" fill-rule="nonzero"/><circle cx="901.78" cy="60.2" r="3.32" fill="#000" fill-rule="nonzero"/><circle cx="711.78" cy="60.2" r="3.32" fill="#000" fill-rule="nonzero"/><circle cx="875.4" cy="195.52" r="3.32" fill="#000" fill-rule="nonzero"/><circle cx="738.17" cy="195.52" r="3.32" fill="#000" fill-rule="nonzero"/><path fill="#000" fill-rule="nonzero" d="M806.79 558.71a8.05 8.05 0 1 1-8.05 8.05 8.06 8.06 0 0 1 8.05-8.05Zm0 13.11a5.05 5.05 0 1 0-5.05-5.05 5.06 5.06 0 0 0 5.05 5.05ZM1114.93 736.15a8.05 8.05 0 1 1-8.08 8.08 8.06 8.06 0 0 1 8.08-8.08Zm0 13.11a5.05 5.05 0 1 0-5.08-5.03 5.06 5.06 0 0 0 5.08 5v.03ZM498.65 736.15a8.05 8.05 0 1 1-8.05 8.05 8.06 8.06 0 0 1 8.05-8.05Zm0 13.11a5.05 5.05 0 1 0-5.05-5.05 5.06 5.06 0 0 0 5.05 5.02v.03ZM1092.02 517.34a8.05 8.05 0 1 1-8.05 8.05 8.06 8.06 0 0 1 8.05-8.05Zm0 13.11a5.05 5.05 0 1 0-5.05-5.05 5.06 5.06 0 0 0 5.05 5.04v.01ZM521.55 512.28a8.05 8.05 0 1 1-8.05 8.05 8.06 8.06 0 0 1 8.05-8.05Zm0 13.11a5.05 5.05 0 1 0-5.05-5.05 5.06 5.06 0 0 0 5.05 5.05ZM366.27 409.18a8.05 8.05 0 1 1-8.05 8.05 8.06 8.06 0 0 1 8.05-8.05Zm0 13.11a5.05 5.05 0 1 0-5.05-5.05 5.06 5.06 0 0 0 5.05 5.04v.01ZM1247.3 409.18a8.05 8.05 0 1 1-8.05 8.05 8.06 8.06 0 0 1 8.05-8.05Zm0 13.11a5.05 5.05 0 1 0-5.05-5.05 5.06 5.06 0 0 0 5.05 5.04v.01Z"/><circle cx="584.48" cy="691.51" r="3.32" fill="#000" fill-rule="nonzero"/><circle cx="591.59" cy="471.34" r="3.32" fill="#000" fill-rule="nonzero"/><circle cx="591.59" cy="337.36" r="3.32" fill="#000" fill-rule="nonzero"/><circle cx="1031.59" cy="471.34" r="3.32" fill="#000" fill-rule="nonzero"/><circle cx="1031.59" cy="337.36" r="3.32" fill="#000" fill-rule="nonzero"/><circle cx="1021.27" cy="688.83" r="3.32" fill="#000" fill-rule="nonzero"/><circle cx="412.6" cy="514.34" r="3.32" fill="#000" fill-rule="nonzero"/><circle cx="1200.97" cy="517.65" r="3.32" fill="#000" fill-rule="nonzero"/><circle cx="711.78" cy="756.38" r="3.32" fill="#000" fill-rule="nonzero"/><circle cx="901.78" cy="756.38" r="3.32" fill="#000" fill-rule="nonzero"/><circle cx="738.17" cy="631.86" r="3.32" fill="#000" fill-rule="nonzero"/><circle cx="875.4" cy="631.86" r="3.32" fill="#000" fill-rule="nonzero"/><path stroke="#FFF" stroke-linecap="round" stroke-width="3" d="M673.41 494.82v-12.66M667.08 488.49h12.66M942.44 312.16v12.66M948.77 318.49h-12.66M673.41 324.82v-12.66M667.08 318.49h12.66"/><circle cx="592.49" cy="402.98" r="3.32" fill="#FFF" fill-rule="nonzero"/><g fill-rule="nonzero"><path fill="#000" d="m237.34 341.07-24-17.28a3.32 3.32 0 0 0-3.88 0l-24.12 17.28a3.33 3.33 0 0 0-1.47 2.64 1.49 1.49 0 0 0 0 .41v28.3a3.42 3.42 0 0 0 3.5 3.24h48a3.35 3.35 0 0 0 3.4-3.21v-28.73a3.3 3.3 0 0 0-1.43-2.65Zm-26 15.16-24-12.92 23.83-17.08a.34.34 0 0 1 .38 0l23.68 17-23.89 13Z"/><path fill="#FFF" d="M235.35 372.66h-48a.68.68 0 0 1-.5-.24v-26l23.78 12.81a1.5 1.5 0 0 0 1.43 0l23.7-12.87v26a.41.41 0 0 1-.41.3Z"/></g><path fill="#000" fill-rule="nonzero" d="M833.72 720.75a1.5 1.5 0 0 0-2-.09l-31.29 26.37h-.05l-5.68 5.68a11.85 11.85 0 0 0-10 8.63c-1.85 6.78-4.85 9.83-4.85 9.89a1.5 1.5 0 0 0 .69 2.52 22.51 22.51 0 0 0 5.08.55 17.15 17.15 0 0 0 9.91-2.82c3.46-2.45 5.51-6.36 6.12-11.61l5.71-5.71.06-.06 26.43-31.32a1.5 1.5 0 0 0-.13-2.03Zm-27.51 30.1-2.59-2.62 16.52-13.93-13.93 16.55Z"/><path fill="#FFF" fill-rule="nonzero" d="M1333.8 359.98a1.5 1.5 0 0 1-1.06-.44l-1.47-1.47a1.5 1.5 0 0 1 0-2.12l1.47-1.47a1.5 1.5 0 0 1 2.12 0l1.47 1.47a1.5 1.5 0 0 1 0 2.12l-1.47 1.47a1.5 1.5 0 0 1-1.06.44ZM1363.13 389.32a1.5 1.5 0 0 1-1.06-.44l-1.47-1.47a1.5 1.5 0 0 1 0-2.12l1.47-1.47a1.5 1.5 0 0 1 2.12 0l1.47 1.47a1.5 1.5 0 0 1 0 2.12l-1.47 1.47a1.5 1.5 0 0 1-1.06.44ZM1352.32 376.91a1.5 1.5 0 0 1-1.05-.43l-1.61-1.59a1.5 1.5 0 1 1 2.11-2.13l1.61 1.59a1.5 1.5 0 0 1-1.05 2.57l-.01-.01ZM1358.8 383.32a1.5 1.5 0 0 1-1.05-.43l-.76-.75a1.5 1.5 0 0 0-1.52-1.5l-.76-.75a1.5 1.5 0 1 1 2.11-2.13l.76.75a1.5 1.5 0 0 1 .45 1.07 1.51 1.51 0 0 1 1.08.43l.76.75a1.5 1.5 0 0 1-1.05 2.57l-.02-.01Z"/><path fill="#FFF" fill-rule="nonzero" d="M1362.51 386.99a1.5 1.5 0 0 1-1.05-.43l-1.61-1.59a1.5 1.5 0 1 1 2.11-2.13l1.61 1.59a1.5 1.5 0 0 1-1.05 2.57l-.01-.01ZM1336.14 360.83a1.49 1.49 0 0 1-1.06-.44l-1.59-1.6a1.503 1.503 0 0 1 2.13-2.12l1.59 1.6a1.5 1.5 0 0 1-1.06 2.56h-.01ZM1342.37 367.09a1.5 1.5 0 0 1-1.06-.44l-.73-.73a1.5 1.5 0 0 0-1.46-1.47l-.73-.74a1.5 1.5 0 1 1 2.13-2.11l.73.74a1.5 1.5 0 0 0 1.46 1.47l.73.73a1.5 1.5 0 0 1-1.06 2.56l-.01-.01Z"/><path fill="#FFF" fill-rule="nonzero" d="M1345.98 370.73a1.5 1.5 0 0 1-1.06-.44l-1.59-1.6a1.503 1.503 0 0 1 2.13-2.12l1.59 1.6a1.5 1.5 0 0 1-1.06 2.56h-.01Z"/><path fill="#000" fill-rule="nonzero" d="M1320.91 372.33a1.5 1.5 0 0 1-.93-2.67 21.83 21.83 0 0 1 25.92-.71 1.5 1.5 0 1 1-1.72 2.46 18.81 18.81 0 0 0-22.34.6 1.5 1.5 0 0 1-.93.32ZM1349.06 400.49a1.5 1.5 0 0 1-1.16-2.45 18.46 18.46 0 0 0 .68-22.34 1.5 1.5 0 0 1 2.44-1.74 21.47 21.47 0 0 1-.79 26 1.5 1.5 0 0 1-1.17.53Z"/><path fill="#000" fill-rule="nonzero" d="m1324.28 372.08-4.66-4.66a1.54 1.54 0 0 0-2.12 0l-4.66 4.66a1.5 1.5 0 0 0 0 2.12l4.66 4.66a1.5 1.5 0 0 0 2.12 0l4.66-4.66a1.5 1.5 0 0 0 0-2.12Zm-5.72 3.6-2.54-2.54 2.54-2.54 2.54 2.54-2.54 2.54ZM1353.85 370.71l-4.66-4.66a1.5 1.5 0 0 0-2.12 0l-4.66 4.66a1.5 1.5 0 0 0 0 2.12l4.66 4.66a1.5 1.5 0 0 0 2.12 0l4.66-4.66a1.5 1.5 0 0 0 0-2.12Zm-5.72 3.6-2.54-2.54 2.54-2.54 2.54 2.54-2.54 2.54ZM1352.53 400.33l-4.66-4.66a1.5 1.5 0 0 0-2.12 0l-4.66 4.66a1.5 1.5 0 0 0 0 2.12l4.66 4.66a1.5 1.5 0 0 0 2.12 0l4.66-4.66a1.5 1.5 0 0 0 0-2.12Zm-5.72 3.6-2.54-2.54 2.54-2.54 2.54 2.54-2.54 2.54Z"/><g fill-rule="nonzero"><path fill="#000" d="M279.62 763.12a24.38 24.38 0 1 1 5.84-48 1.5 1.5 0 0 1 1.1 1.82l-5 20.38c20.17-6.13 20.19-6.12 20.92-5.72a1.5 1.5 0 0 1 .73.93 24.38 24.38 0 0 1-23.56 30.64l-.03-.05Z"/><path fill="#FFF" d="M279.63 717.36a21.38 21.38 0 1 0 21 17.34c-3.66 1-13.75 4.08-20.73 6.2a1.5 1.5 0 0 1-1.89-1.79l5.29-21.43a21.27 21.27 0 0 0-3.67-.32Z"/><path fill="#000" d="M309.04 723.7a21.19 21.19 0 0 0-15.19-14.63 1.5 1.5 0 0 0-1.82 1.09l-4.74 19a1.5 1.5 0 0 0 1.87 1.8l18.85-5.41a1.5 1.5 0 0 0 1-1.9l.03.05Zm-18.19 3.7 3.74-15a18.2 18.2 0 0 1 11.12 10.74l-14.86 4.26Z"/></g><g fill-rule="nonzero"><path fill="#000" d="m436.85 690.43-1.82-6.26a1.51 1.51 0 0 0 0-.2l-9.45-32.52s0-.06-.05-.1l-.6-2.05a6.1 6.1 0 0 0-7.54-4.15l-19.37 5.63a6.09 6.09 0 0 0-4.17 7.55l11.95 41.13a6.08 6.08 0 0 0 7.54 4.15l19.37-5.63a6.09 6.09 0 0 0 4.14-7.55Zm-39.95-32.2-.21-.72a3.09 3.09 0 0 1 2.1-3.83l19.37-5.63c.28-.08.57-.121.86-.12a3.11 3.11 0 0 1 3 2.22l.21.72-25.33 7.36Zm34.95 36.87-19.37 5.63a3.09 3.09 0 0 1-3.83-2.1l-1.46-5 25.3-7.35 1.46 5a3.09 3.09 0 0 1-2.1 3.82Z"/><path fill="#FFF" d="M420.05 690.69a3.43 3.43 0 1 0 1.916 6.587 3.43 3.43 0 0 0-1.916-6.587ZM423.04 653.74l-25.28 7.34 8.61 29.64 25.28-7.34-8.61-29.64Zm-21.33 11.62a1.35 1.35 0 0 1 .66-1.76l18-5.32c.6-.18 1.27.32 1.51 1.12a1.35 1.35 0 0 1-.66 1.76l-18 5.32c-.6.17-1.28-.33-1.51-1.12Zm1.94 6.57a1.35 1.35 0 0 1 .66-1.76l18-5.32c.6-.18 1.27.32 1.51 1.12a1.35 1.35 0 0 1-.66 1.76l-18 5.32c-.6.18-1.31-.33-1.51-1.13v.01Zm1.94 6.57a1.35 1.35 0 0 1 .66-1.76l18-5.32c.6-.18 1.27.32 1.51 1.12a1.35 1.35 0 0 1-.66 1.76l-18 5.32c-.6.17-1.25-.33-1.51-1.13v.01Zm21.45 2.37-18 5.32c-.6.18-1.27-.32-1.51-1.12a1.35 1.35 0 0 1 .66-1.76l18-5.32c.6-.18 1.27.32 1.51 1.12a1.35 1.35 0 0 1-.66 1.75v.01Z"/></g><g fill-rule="nonzero"><path fill="#000" d="m1058.85 433.43-1.82-6.26a1.51 1.51 0 0 0 0-.2l-9.45-32.52s0-.06-.05-.1l-.6-2.05a6.1 6.1 0 0 0-7.54-4.15l-19.37 5.63a6.09 6.09 0 0 0-4.17 7.55l11.95 41.13a6.08 6.08 0 0 0 7.54 4.15l19.37-5.63a6.09 6.09 0 0 0 4.14-7.55Zm-39.95-32.2-.21-.72a3.09 3.09 0 0 1 2.1-3.83l19.37-5.63c.28-.08.57-.121.86-.12a3.11 3.11 0 0 1 3 2.22l.21.72-25.33 7.36Zm34.95 36.87-19.37 5.63a3.09 3.09 0 0 1-3.83-2.1l-1.46-5 25.3-7.35 1.46 5a3.09 3.09 0 0 1-2.1 3.82Z"/><path fill="#FFF" d="M1042.05 433.69a3.43 3.43 0 1 0 1.916 6.587 3.43 3.43 0 0 0-1.916-6.587ZM1045.04 396.74l-25.28 7.34 8.61 29.64 25.28-7.34-8.61-29.64Zm-21.33 11.62a1.35 1.35 0 0 1 .66-1.76l18-5.32c.6-.18 1.27.32 1.51 1.12a1.35 1.35 0 0 1-.66 1.76l-18 5.32c-.6.17-1.28-.33-1.51-1.12Zm1.94 6.57a1.35 1.35 0 0 1 .66-1.76l18-5.32c.6-.18 1.27.32 1.51 1.12a1.35 1.35 0 0 1-.66 1.76l-18 5.32c-.6.18-1.31-.33-1.51-1.13v.01Zm1.94 6.57a1.35 1.35 0 0 1 .66-1.76l18-5.32c.6-.18 1.27.32 1.51 1.12a1.35 1.35 0 0 1-.66 1.76l-18 5.32c-.6.17-1.25-.33-1.51-1.13v.01Zm21.45 2.37-18 5.32c-.6.18-1.27-.32-1.51-1.12a1.35 1.35 0 0 1 .66-1.76l18-5.32c.6-.18 1.27.32 1.51 1.12a1.35 1.35 0 0 1-.66 1.75v.01Z"/></g><path fill="#000" fill-rule="nonzero" d="M348.16 169.69h-44.59a5.12 5.12 0 0 0-5.16 5.18v31a5.19 5.19 0 0 0 5.16 5.2h12.37l-1 6a1.48 1.48 0 0 0 0 .24 2.49 2.49 0 0 0 2.58 2.38h16.65a2.49 2.49 0 0 0 2.58-2.38 1.47 1.47 0 0 0 0-.24l-1-6h12.37a5.19 5.19 0 0 0 5.17-5.2v-31a5.12 5.12 0 0 0-5.13-5.18Zm-16.06 20a.39.39 0 0 1 .16-.27l3.71-2.12-3.71-2.2a.39.39 0 0 1-.16-.27v-1.69a.35.35 0 0 1 .54-.31l6.8 4.12a.45.45 0 0 1 .19.33v.1a.45.45 0 0 1-.19.33l-6.8 4a.35.35 0 0 1-.54-.31v-1.71Zm-8.31 3.89 3.81-12.86a.38.38 0 0 1 .35-.25h1.9a.35.35 0 0 1 .35.49l-3.79 12.86a.4.4 0 0 1-.35.25h-1.92a.36.36 0 0 1-.35-.46v-.03Zm-9.56-6.29a.45.45 0 0 1 .19-.33l6.8-4.12a.35.35 0 0 1 .54.31v1.69a.39.39 0 0 1-.16.27l-3.71 2.2 3.71 2.12a.39.39 0 0 1 .16.27v1.69a.35.35 0 0 1-.54.31l-6.8-4a.45.45 0 0 1-.19-.33v-.08Zm3.84 29.37.91-5.61h13.77l.91 5.61h-15.59Zm32.26-10.81a2.16 2.16 0 0 1-2.17 2.2h-44.59a2.16 2.16 0 0 1-2.16-2.2v-1.57h48.92v1.57Z"/><path fill="#FFF" fill-rule="nonzero" d="M348.16 172.69h-44.59a2.15 2.15 0 0 0-2.16 2.18v26.42h48.92v-26.41a2.15 2.15 0 0 0-2.17-2.19Zm-26.39 12.17a.39.39 0 0 1-.16.27l-3.71 2.2 3.71 2.12a.39.39 0 0 1 .16.27v1.69a.35.35 0 0 1-.54.31l-6.8-4a.45.45 0 0 1-.19-.33v-.1a.45.45 0 0 1 .19-.33l6.8-4.12a.35.35 0 0 1 .54.31v1.71Zm8.43-3.89-3.79 12.86a.4.4 0 0 1-.35.25h-1.92a.36.36 0 0 1-.35-.49l3.81-12.86a.38.38 0 0 1 .35-.25h1.9a.35.35 0 0 1 .35.5v-.01Zm9.44 6.43a.45.45 0 0 1-.19.33l-6.8 4a.35.35 0 0 1-.54-.31v-1.69a.39.39 0 0 1 .16-.27l3.71-2.12-3.71-2.2a.39.39 0 0 1-.16-.27v-1.69a.35.35 0 0 1 .54-.31l6.8 4.12a.45.45 0 0 1 .19.33v.08ZM793.85 768.99c-3.3 2.34-7.56 2.42-10.17 2.17a30.87 30.87 0 0 0 3.92-9 8.74 8.74 0 0 1 7.22-6.4l3.86 3.86c-.56 4.32-2.18 7.46-4.83 9.37ZM797.459 754.33l3.947-3.945 2.778 2.78-3.947 3.945z"/><path fill="#000" fill-rule="nonzero" d="M843.18 79.44a3.1 3.1 0 0 0-1.71-1.67l-36.91-14.72a3.13 3.13 0 0 0-4.06 1.74l-10.52 26.58-2.82-1.14a1.5 1.5 0 0 0-1.95.84l-1 2.52a3.3 3.3 0 0 0 1.84 4.29l44.86 17.9a3.31 3.31 0 0 0 4.3-1.84l1-2.52a1.5 1.5 0 0 0-.84-1.95l-2.67-1.07 10.51-26.57a3.11 3.11 0 0 0-.03-2.39Zm-23.72 11.53a3 3 0 0 1 1.64 1.59 3 3 0 0 1-1.56 3.92 3 3 0 0 1-2.28 0 3 3 0 1 1 2.2-5.53v.02Zm-7.08-14.05a3 3 0 0 1 3.89-1.69 3 3 0 1 1-2.2 5.53 3 3 0 0 1-1.68-3.85l-.01.01Zm-25.22 18.19a.3.3 0 0 1-.17-.4l.45-1.12 18.85 7.52a2.49 2.49 0 0 0 .82 2l-19.95-8Zm20.58-14.1a3 3 0 0 1-3.89 1.65 3 3 0 1 1 3.88-1.65h.01Zm25.11 30.7-.45 1.12a.3.3 0 0 1-.16.17.31.31 0 0 1-.23 0l-19.95-8a2.48 2.48 0 0 0 1.95-.85l18.84 7.56Zm0-22.4a3 3 0 0 1-3.88 1.65 3 3 0 0 1-1.68-3.87 3 3 0 0 1 1.6-1.63 3 3 0 0 1 3.92 1.56 2.94 2.94 0 0 1 .04 2.29Z"/><path fill="#FFF" fill-rule="nonzero" d="m840.36 80.56-36.91-14.73a.13.13 0 0 0-.16.07l-10.52 26.58 15.9 6.34a1.5 1.5 0 0 1 .84 1.95l-.06.15 2.41 1 .06-.15a1.5 1.5 0 0 1 1.95-.84l16 6.4 10.52-26.58a.14.14 0 0 0-.03-.19Zm-32.61.44a3 3 0 0 1-3.9 1.66 3 3 0 1 1 3.88-1.65l.02-.01Zm6.32-.22a3 3 0 0 1-1.68-3.87 3 3 0 0 1 3.88-1.68 3 3 0 1 1-2.2 5.53v.02Zm7.07 14.05a2.94 2.94 0 0 1-1.6 1.63 3 3 0 0 1-2.28 0 3 3 0 1 1 3.84-3.94 3 3 0 0 1 .04 2.32v-.01Zm11.71-5.52a3 3 0 0 1-3.88 1.65 3 3 0 0 1-1.68-3.87 3 3 0 0 1 1.6-1.63 3 3 0 0 1 3.92 1.56 2.94 2.94 0 0 1 .04 2.29Z"/><path fill="#000" fill-rule="nonzero" d="M812.93 79.96a3 3 0 0 1-.56-2.95l-5.15.94a3 3 0 0 1 .56 2.95l5.15-.94ZM819.32 90.92l-2.17-10.69a2.93 2.93 0 0 1-2.94.57l2.17 10.68a3 3 0 0 1 2.94-.56ZM828.35 90.65a3 3 0 0 1-1.29-2.71l-7 3.33a3 3 0 0 1 1.07 1.28c.195.45.274.942.23 1.43l6.99-3.33Z"/><g fill-rule="nonzero"><path fill="#000" d="M1317.31 123.94a1.5 1.5 0 0 0-1.06-.44h-5.33v-5.4a1.5 1.5 0 0 0-1.5-1.5h-5.1l.24-1.83a1.5 1.5 0 0 0-1.37-1.69l-32.12-2.57a1.5 1.5 0 0 0-1.62 1.41l-.27 4.68h-4.92a1.5 1.5 0 0 0-1.5 1.5v33.86a1.5 1.5 0 0 0 1.5 1.5h1.74l-.51 4.07a1.5 1.5 0 0 0 1.36 1.7l32.12 2.6h.12a1.5 1.5 0 0 0 1.49-1.38v-.22h15.49a1.5 1.5 0 0 0 1.5-1.49l.14-33.7a1.5 1.5 0 0 0-.4-1.1Zm-32 11.66a6.25 6.25 0 1 1-6.35-7l-.65 5.33a1.5 1.5 0 0 0 2.09 1.55c1.84-.81 3.73-1.64 4.8-2.09.12.73.147 1.473.08 2.21h.03Zm17.33 6.56h-9a1.5 1.5 0 0 1 0-3h9a1.5 1.5 0 0 1 0 3Zm0-6.77h-9a1.5 1.5 0 0 1 0-3h9a1.5 1.5 0 0 1 0 3Zm0-6.77h-9a1.5 1.5 0 0 1 0-3h9a1.5 1.5 0 0 1 0 3Z"/><path fill="#FFF" d="m1272.36 113.61 29.02 2.32-.09.66h-29.1zM1268.67 156.34l.36-2.89h29.13l-.43 5.24zM1314.61 157.23h-13.76l.31-3.75h8.24a1.5 1.5 0 0 0 1.5-1.5v-25.49h3.82l-.11 30.74Z"/><path fill="#FFF" d="M1265.76 119.58v30.86h42.15v-30.86h-42.15Zm19.52 16a6.25 6.25 0 1 1-6.35-7l-.65 5.33a1.5 1.5 0 0 0 2.09 1.55c1.84-.81 3.73-1.64 4.8-2.09a8.75 8.75 0 0 1 .11 2.23v-.02Zm17.33 6.56h-9a1.5 1.5 0 0 1 0-3h9a1.5 1.5 0 0 1 0 3Zm0-6.77h-9a1.5 1.5 0 0 1 0-3h9a1.5 1.5 0 0 1 0 3Zm0-6.77h-9a1.5 1.5 0 0 1 0-3h9a1.5 1.5 0 0 1 0 3Z"/><path fill="#000" d="M1285.72 133.1v-1.5zM1285.72 130.1c-.45 0-.54 0-4.14 1.58l.45-3.67a2 2 0 0 0-.48-1.62 3.12 3.12 0 0 0-2.48-.79 9.25 9.25 0 1 0 9.19 10.37s.35-3.64-1-5.15a2.06 2.06 0 0 0-1.54-.72Zm-.44 5.51a6.25 6.25 0 1 1-6.35-7l-.65 5.33a1.5 1.5 0 0 0 2.09 1.55c1.84-.81 3.73-1.64 4.8-2.09a8.75 8.75 0 0 1 .11 2.2v.01Z"/></g><path fill="#000" fill-rule="nonzero" d="M1439.52 423.82a8.05 8.05 0 1 1-8.05-8.05 8.06 8.06 0 0 1 8.05 8.05Zm-13.11 0a5.05 5.05 0 1 0 5.05-5.05 5.06 5.06 0 0 0-5.05 5.05ZM1400.16 583a8.05 8.05 0 1 1-8.05-8.05 8.06 8.06 0 0 1 8.05 8.05Zm-13.11 0a5.05 5.05 0 1 0 5.05-5.05 5.06 5.06 0 0 0-5.05 5.05ZM1400.16 264.64a8.05 8.05 0 1 1-8.05-8.05 8.06 8.06 0 0 1 8.05 8.05Zm-13.11 0a5.05 5.05 0 1 0 5.05-5.05 5.06 5.06 0 0 0-5.05 5.05Z"/><path stroke="#FFF" stroke-linecap="round" stroke-width="3" d="M1006.2 68.09v12.67M1012.53 74.43h-12.67M605.37 68.09v12.67M611.7 74.43h-12.66M1006.2 738.09v12.67M1012.53 744.43h-12.67M605.37 738.09v12.67M611.7 744.43h-12.66"/></g></svg>